<svg width="226" height="543" viewBox="0 0 226 543" fill="none" xmlns="http://www.w3.org/2000/svg">
<path d="M118.841 454.321C124.837 448.806 131.107 443.238 137.473 437.585C158.029 419.33 179.591 400.181 196.201 379.043C217.936 351.382 231.114 320.403 222.403 283.703C213.948 248.08 186.225 229.818 153.387 214.63C145.18 210.835 136.663 207.235 128.055 203.604L127.444 203.347C119.038 199.802 110.549 196.222 102.196 192.401C85.0873 184.576 68.5201 175.728 54.3305 164.059C38.7754 151.267 25.4732 134.557 13.1113 116.739C6.92946 107.829 0.978325 98.6349 -4.90275 89.51C-5.28972 88.9096 -5.67637 88.3095 -6.06276 87.7098C-11.5504 79.1929 -16.9858 70.7569 -22.5068 62.6784C-46.1728 28.0492 -71.2667 0.21863 -108.276 0.903399C-147.789 1.63448 -183.92 24.1709 -211.334 56.9166C-238.745 89.659 -257.391 132.554 -261.949 173.875C-265.879 209.499 -247.822 239.007 -223.983 267.814C-216.787 276.508 -209.086 285.116 -201.312 293.804C-196.2 299.517 -191.057 305.266 -186.006 311.097C-173.289 325.777 -161.191 340.943 -151.788 357.259C-142.771 372.904 -136.084 390.538 -130.121 408.526C-127.757 415.658 -125.509 422.838 -123.275 429.973C-119.866 440.858 -116.49 451.64 -112.785 461.988C-100.521 496.239 -84.7614 525.379 -52.7888 536.828C-19.5036 548.747 10.9834 539.559 39.386 521.646C62.5416 507.043 84.2495 486.682 104.905 467.308C109.604 462.902 114.247 458.546 118.841 454.321Z" stroke="#00F0B5"/>
</svg>
