<svg width="179" height="438" viewBox="0 0 179 438" fill="none" xmlns="http://www.w3.org/2000/svg">
<path d="M92.2842 366.058C97.113 361.617 102.161 357.134 107.286 352.583C123.829 337.891 141.174 322.488 154.536 305.482C172.02 283.232 182.609 258.328 175.607 228.829C168.813 200.205 146.54 185.524 120.114 173.302C113.511 170.249 106.658 167.352 99.7291 164.43L99.2408 164.224C92.474 161.37 85.6396 158.488 78.9142 155.412C65.1409 149.112 51.7978 141.987 40.3675 132.587C27.8375 122.283 17.1251 108.825 7.17392 94.4819C2.19735 87.3088 -2.59323 79.9076 -7.32656 72.5635C-7.63782 72.0806 -7.94882 71.5979 -8.25962 71.1155C-12.6766 64.2602 -17.0508 57.4714 -21.4937 50.9704C-40.5429 23.0967 -60.7124 0.743988 -90.4408 1.29401C-122.205 1.88172 -151.261 19.9994 -173.314 46.3414C-195.364 72.6803 -210.363 107.187 -214.03 140.424C-217.188 169.055 -202.679 192.777 -183.494 215.959C-177.704 222.955 -171.508 229.88 -165.253 236.871C-161.138 241.47 -156.998 246.097 -152.93 250.793C-142.694 262.61 -132.952 274.822 -125.379 287.962C-118.117 300.563 -112.732 314.763 -107.933 329.242C-106.029 334.986 -104.219 340.766 -102.421 346.509C-99.6781 355.268 -96.9624 363.941 -93.9805 372.269C-84.1105 399.833 -71.4395 423.246 -45.7524 432.444C-19.0027 442.023 5.50223 434.643 28.3485 420.235C46.9766 408.487 64.4397 392.107 81.0643 376.515C84.8463 372.967 88.585 369.461 92.2842 366.058Z" stroke="#00F0B5"/>
</svg>
