<svg width="17" height="15" viewBox="0 0 17 15" fill="none" xmlns="http://www.w3.org/2000/svg">
<path fill-rule="evenodd" clip-rule="evenodd" d="M15.2909 1.98974C15.5224 1.75818 15.5224 1.38276 15.2909 1.1512C15.0593 0.91965 14.6839 0.91965 14.4523 1.1512L1.80311 13.8004C1.57155 14.032 1.57155 14.4074 1.80311 14.639C2.03466 14.8705 2.41009 14.8705 2.64164 14.639L4.89233 12.3883C5.9725 12.8967 7.21659 13.2315 8.54699 13.2315C10.6689 13.2315 12.5713 12.38 13.9392 11.3301C14.6244 10.8042 15.1904 10.2174 15.5901 9.64135C15.9789 9.08117 16.2551 8.46643 16.2551 7.89508C16.2551 7.32373 15.9789 6.70899 15.5901 6.14881C15.1904 5.57272 14.6244 4.98598 13.9392 4.46005C13.732 4.301 13.5125 4.1465 13.2818 3.99883L15.2909 1.98974ZM12.4204 4.86016L11.0205 6.26014C11.3309 6.72881 11.5116 7.29084 11.5116 7.89508C11.5116 9.53242 10.1843 10.8597 8.54699 10.8597C7.94274 10.8597 7.38071 10.679 6.91204 10.3686L5.79202 11.4886C6.6344 11.8318 7.56835 12.0456 8.54699 12.0456C10.3547 12.0456 12.0099 11.316 13.2172 10.3894C13.8195 9.92709 14.2956 9.42678 14.6159 8.96524C14.9472 8.48779 15.0692 8.11431 15.0692 7.89508C15.0692 7.67586 14.9472 7.30238 14.6159 6.82492C14.2956 6.36338 13.8195 5.86308 13.2172 5.40079C12.9696 5.21076 12.7032 5.02902 12.4204 4.86016ZM7.78008 9.50052C8.01229 9.61165 8.27237 9.67388 8.54699 9.67388C9.52939 9.67388 10.3258 8.87748 10.3258 7.89508C10.3258 7.62047 10.2636 7.36039 10.1524 7.12817L7.78008 9.50052Z" fill="#C2C3CB"/>
<path d="M8.54699 2.55869C9.36314 2.55869 10.1468 2.68466 10.8801 2.89944C11.0212 2.94076 11.0632 3.11733 10.9592 3.22127L10.3074 3.87315C10.2585 3.92205 10.1876 3.94163 10.1202 3.92613C9.61472 3.80983 9.08767 3.74456 8.54699 3.74456C6.7393 3.74456 5.08409 4.4742 3.87679 5.40079C3.27446 5.86308 2.79837 6.36338 2.47807 6.82492C2.14672 7.30238 2.02473 7.67586 2.02473 7.89508C2.02473 8.11431 2.14672 8.48779 2.47807 8.96524C2.7578 9.36832 3.15635 9.80096 3.65404 10.212C3.74563 10.2877 3.75436 10.4261 3.67036 10.5101L3.10991 11.0706C3.03852 11.142 2.92459 11.1483 2.84723 11.0834C2.29937 10.6239 1.84213 10.1288 1.50382 9.64135C1.11507 9.08117 0.838867 8.46643 0.838867 7.89508C0.838867 7.32373 1.11507 6.70899 1.50382 6.14881C1.90362 5.57272 2.46953 4.98598 3.15479 4.46005C4.52268 3.41021 6.42507 2.55869 8.54699 2.55869Z" fill="#C2C3CB"/>
<path d="M8.54699 4.93042C8.64065 4.93042 8.73329 4.93476 8.82473 4.94326C8.98036 4.95772 9.03671 5.1438 8.92618 5.25432L7.9678 6.21271C7.45131 6.39048 7.04239 6.7994 6.86461 7.31589L5.90623 8.27428C5.79571 8.3848 5.60962 8.32846 5.59516 8.17283C5.58667 8.08139 5.58232 7.98874 5.58232 7.89508C5.58232 6.25774 6.90965 4.93042 8.54699 4.93042Z" fill="#434551"/>
</svg>
